<?xml version="1.0" encoding="UTF-8"?>
<svg width="356px" height="123px" viewBox="0 0 356 123" version="1.1" xmlns="http://www.w3.org/2000/svg" xmlns:xlink="http://www.w3.org/1999/xlink">
    <title>Group 23</title>
    <g id="Projects" stroke="none" stroke-width="1" fill="none" fill-rule="evenodd">
        <g id="Artboard" transform="translate(-20.000000, 0.000000)">
            <g id="Group-23" transform="translate(20.180034, 0.296310)">
                <path d="M300.867268,99.3605667 L297.255256,121.927041 L283.942412,121.927041 L284.974416,99.3605667 L300.867268,99.3605667 Z M95.1300659,41.5057945 C105.234873,41.5057945 113.910717,46.6145044 118.401742,54.6862661 L103.907979,63.0645504 C102.070741,59.6928019 99.1107474,58.0580147 95.0279972,58.0580147 C89.3121468,58.0580147 85.0252591,62.349331 85.0252591,68.479783 C85.0252591,74.6102349 89.3121468,78.9015512 95.0279972,78.9015512 C99.2128161,78.9015512 102.17281,77.1645898 103.907979,73.7928413 L118.401742,82.1711256 C113.910717,90.3450615 105.234873,95.4537714 95.1300659,95.4537714 C87.3728405,95.4537714 80.9425089,92.8994164 75.7370023,87.6885323 C70.5314958,82.4776482 67.9797769,76.1428479 67.9797769,68.479783 C67.9797769,60.8167181 70.5314958,54.4819177 75.7370023,49.2710336 C80.9425089,44.0601495 87.3728405,41.5057945 95.1300659,41.5057945 Z M294.633693,28.5452619 L294.633693,43.0069063 L305.262829,43.0069063 L305.262829,59.4312024 L294.633693,59.4312024 L294.633693,74.4093341 C294.633693,78.9544224 297.597586,79.5742071 305.262829,79.1610173 L305.262829,94.6556363 C295.144709,95.8952058 287.990482,94.9655287 283.80015,91.8666049 C279.712021,88.6643836 277.667956,82.9830233 277.667956,74.822524 L277.667956,59.4312024 L270.002713,59.4312024 L270.002713,43.0069063 L277.667956,43.0069063 L277.667956,33.7101349 L294.633693,28.5452619 Z M46.0984529,22.4730276 L69.8150289,94.7562646 L49.999881,94.7562646 L46.9198062,84.3268261 L22.9978919,84.3268261 L19.9178171,94.7562646 L-1.42108547e-14,94.7562646 L23.716576,22.4730276 L46.0984529,22.4730276 Z M139.389102,22.2376869 L139.389102,48.0531287 C142.460842,43.6128727 147.170844,41.4443756 153.621498,41.4443756 C164.679762,41.4443756 172.461504,49.2922699 172.461504,63.6456555 L172.461504,94.5209239 L155.464542,94.5209239 L155.464542,65.8141526 C155.464542,60.4445407 152.392802,57.656473 147.785192,57.656473 C142.460842,57.656473 139.389102,60.9608496 139.389102,67.0532938 L139.389102,94.5209239 L122.39214,94.5209239 L122.39214,22.2376869 L139.389102,22.2376869 Z M265.591081,24.6202088 L265.591081,94.4352377 L248.666226,94.4352377 L248.666226,24.6202088 L265.591081,24.6202088 Z M352.96638,54.0363871 L352.96638,94.2329189 L336.041524,94.2329189 L336.041524,54.0363871 L352.96638,54.0363871 Z M242.878726,43.09567 L242.878726,54.7526642 L224.720198,78.47567 L243.904632,78.47567 L243.904632,94.2228376 L201.945094,94.2228376 L201.945094,82.5658434 L220.103623,58.8428376 L202.971,58.8428376 L202.971,43.09567 L242.878726,43.09567 Z M195.530633,43.0441501 L195.530633,94.1713178 L178.605778,94.1713178 L178.605778,43.0441501 L195.530633,43.0441501 Z M328.58873,42.8487222 L328.58873,93.9758898 L311.663875,93.9758898 L311.663875,42.8487222 L328.58873,42.8487222 Z M34.9075145,43.8482134 L27.7206732,68.424514 L42.1970248,68.424514 L34.9075145,43.8482134 Z" id="Combined-Shape" fill="#112343"></path>
                <path d="M351.169493,32.261472 C355.168754,36.0694799 355.168754,42.1417087 351.169493,46.1555548 C347.375321,49.9635627 341.325156,49.9635627 337.325895,46.1555548 C333.531724,42.1417087 333.531724,36.0694799 337.325895,32.261472 C341.325156,28.4534642 347.375321,28.4534642 351.169493,32.261472 Z M194.910188,22.45965 C198.90945,26.2676579 198.90945,32.3398866 194.910188,36.3537327 C191.116017,40.1617406 185.065852,40.1617406 181.06659,36.3537327 C177.272419,32.3398866 177.272419,26.2676579 181.06659,22.45965 C185.065852,18.6516421 191.116017,18.6516421 194.910188,22.45965 Z M327.242287,22.45965 C331.241548,26.2676579 331.241548,32.3398866 327.242287,36.3537327 C323.448115,40.1617406 317.39795,40.1617406 313.398689,36.3537327 C309.604518,32.3398866 309.604518,26.2676579 313.398689,22.45965 C317.39795,18.6516421 323.448115,18.6516421 327.242287,22.45965 Z M264.250254,2.8560059 C268.249516,6.66401376 268.249516,12.7362425 264.250254,16.7500887 C260.456083,20.5580965 254.405918,20.5580965 250.406657,16.7500887 C246.612485,12.7362425 246.612485,6.66401376 250.406657,2.8560059 C254.405918,-0.952001966 260.456083,-0.952001966 264.250254,2.8560059 Z" id="Combined-Shape-Copy" fill="#0086D2"></path>
            </g>
        </g>
    </g>
</svg>