<svg id="Layer_1" viewBox="0 0 512 512" xmlns="http://www.w3.org/2000/svg" data-name="Layer 1"><rect fill="#837683" height="23.08" rx="11.54" width="348" x="152.925" y="11.182"/><path d="m153.575 26.528c-.42-1.193-.65-2.474-.65-3.806 0-6.34 5.181-11.528 11.517-11.54h318.117c10.997 0 11.6 15.346.057 15.346z" fill="#a79ba7" fill-rule="evenodd"/><rect fill="#837683" height="23.08" rx="11.54" width="348" x="152.925" y="243.514"/><path d="m169.077 34.262h315.696v209.252h-315.696z" fill="#eceff1"/><path d="m476.983 34.262h7.79v209.252h-7.79z" fill="#d1d1d6"/><g fill-rule="evenodd"><path d="m133.597 215.234h-92.572v24.902h-7.279c-11.056 0-20.267-7.522-20.839-18.979-1.608-32.215-2.331-57.241-1.571-89.385.533-6.929 1.624-11.484 3.812-14.951 4.098-6.496 12.749-9.734 19.826-11.647 16.171-4.371 39.688-10.124 52.449-10.124 22.114 0 43.044 5.277 62.383 4.325 24.627-1.212 39.211-15.7 51.892-38.303 8.324-14.836 32.361-2.747 24.928 12.82-15.092 31.607-36.351 59.649-84.73 62.548-4.667.279-8.298 4.133-8.298 8.809v69.985z" fill="#4eb1fc"/><path d="m122.13 215.234h-88.53v24.901c-10.991-.066-20.124-7.571-20.693-18.977-1.608-32.215-2.331-57.241-1.571-89.385.533-6.929 1.624-11.484 3.812-14.951 4.098-6.496 12.749-9.734 19.826-11.647 16.171-4.371 39.688-10.124 52.449-10.124 22.114 0 43.044 5.277 62.383 4.325 24.627-1.212 39.211-15.7 51.892-38.303 3.035-5.41 8.16-7.237 13.086-6.623 3.798 3.397 5.069 9.611.374 19.443-15.092 31.607-36.351 59.649-84.73 62.548-4.667.279-8.298 4.133-8.298 8.809v69.985z" fill="#85caff"/><path d="m30.048 239.847v-92.612c0-3.031 2.457-5.488 5.489-5.488s5.489 2.457 5.489 5.488v92.901h-7.279c-1.26 0-2.496-.099-3.698-.289z" fill="#4eb1fc"/><path d="m133.597 215.234h-92.572v163.55h35.914l8.81-107.265c.067-.816.744-1.44 1.563-1.44s1.496.624 1.563 1.44l8.81 107.265h35.913v-163.55z" fill="#c2a9a1"/><path d="m122.13 215.234h-81.105v163.55h26.357l7.951-88.383c.447-4.972.822-8.731 1.233-11.571 1.262-8.712 3.964-10.858 6.605-11.158 2.8-.317 5.514 1.552 5.702 3.847l8.81 107.265h24.446v-163.55z" fill="#d9c5bf"/><path d="m63.039 67.245c-14.359-20.803-9.944-56.577 24.45-56.577 33.824 0 38.654 34.595 25.15 55.528-12.74 19.749-36.106 20.6-49.601 1.049z" fill="#e6d6d1"/><path d="m63.039 67.245c-13.402-19.417-10.445-51.871 17.974-56.111 27.917 4.162 31.268 35.547 18.679 55.062-5.006 7.76-11.653 12.601-18.697 14.434-6.643-1.731-12.972-6.166-17.955-13.385z" fill="#f0e3df"/><path d="m326.733 338.706c9.934 0 18.036-8.102 18.036-18.035s-8.102-18.036-18.036-18.036-18.035 8.102-18.035 18.036 8.102 18.035 18.035 18.035z" fill="#4eb1fc"/><path d="m323.452 338.407c-8.394-1.543-14.754-8.896-14.754-17.737s6.36-16.194 14.754-17.737c8.394 1.543 14.754 8.896 14.754 17.737s-6.36 16.194-14.754 17.737z" fill="#85caff"/><path d="m394.108 359.972c-15.314-22.187-10.606-60.34 26.076-60.34s41.391 38.153 26.076 60.34c-7.03 10.184-16.571 15.175-26.076 15.164-9.505.01-19.047-4.98-26.076-15.164z" fill="#fdb0a0"/><path d="m394.109 359.972c-14.1-20.428-11.225-54.389 17.949-59.646 29.174 5.257 32.049 39.218 17.949 59.646-5.014 7.263-11.304 11.884-17.949 13.934-6.644-2.05-12.936-6.67-17.949-13.934z" fill="#ffcec0"/><path d="m405.66 376.979-24.751 6.088c-10.031 2.566-21.019 5.476-27.305 9.161-8.199 4.807-11.121 9.715-12.125 22.775-1.271 23.073-.849 44.52.081 66.561.462 10.933 9.455 19.555 20.398 19.555h116.451c10.943 0 19.936-8.622 20.398-19.555.93-22.041 1.352-43.487.081-66.561-1.004-13.06-3.926-17.968-12.125-22.775-6.285-3.686-17.273-6.596-27.305-9.161l-24.751-6.088c-4.994-1.228-9.759-1.842-14.524-1.842s-9.53.614-14.524 1.842z" fill="#4eb1fc"/><path d="m405.66 376.979-24.751 6.088c-10.031 2.566-21.019 5.476-27.305 9.161-8.199 4.807-11.121 9.715-12.125 22.775-1.27 23.074-.849 44.52.081 66.561.462 10.933 9.456 19.555 20.399 19.555h100.787c10.943 0 19.937-8.622 20.398-19.555.93-22.041 1.352-43.488.081-66.561-1.004-13.06-3.926-17.968-12.125-22.775-6.285-3.685-17.273-6.595-27.305-9.161l-24.751-6.088c-2.271-.559-4.495-.99-6.693-1.295-2.198.304-4.422.736-6.693 1.295z" fill="#85caff"/><path d="m207.205 359.972c-15.314-22.187-10.606-60.34 26.076-60.34s41.391 38.153 26.076 60.34c-7.03 10.184-16.571 15.175-26.076 15.164-9.505.01-19.047-4.98-26.076-15.164z" fill="#fdb0a0"/><path d="m207.205 359.972c-14.1-20.428-11.225-54.389 17.949-59.646 29.174 5.257 32.049 39.218 17.949 59.646-5.014 7.263-11.304 11.884-17.949 13.934-6.644-2.05-12.936-6.67-17.949-13.934z" fill="#ffcec0"/><path d="m218.757 376.979-24.751 6.088c-10.031 2.566-21.019 5.476-27.305 9.161-8.199 4.807-11.121 9.715-12.125 22.775-1.271 23.073-.849 44.52.081 66.561.462 10.933 9.455 19.555 20.398 19.555h116.451c10.943 0 19.936-8.622 20.398-19.555.93-22.041 1.352-43.487.081-66.561-1.004-13.06-3.926-17.968-12.125-22.775-6.285-3.686-17.273-6.596-27.305-9.161l-24.751-6.088c-4.994-1.228-9.759-1.842-14.524-1.842s-9.53.614-14.524 1.842z" fill="#4eb1fc"/><path d="m218.757 376.979-24.751 6.088c-10.031 2.566-21.019 5.476-27.305 9.161-8.199 4.807-11.121 9.715-12.125 22.775-1.27 23.074-.849 44.52.081 66.561.462 10.933 9.456 19.555 20.399 19.555h100.787c10.943 0 19.937-8.622 20.398-19.555.93-22.041 1.352-43.488.081-66.561-1.004-13.06-3.926-17.968-12.125-22.775-6.285-3.685-17.273-6.595-27.305-9.161l-24.751-6.088c-2.271-.559-4.495-.99-6.693-1.295-2.198.304-4.422.736-6.693 1.295z" fill="#85caff"/><path d="m153.575 258.86c-.42-1.193-.65-2.474-.65-3.806 0-6.34 5.181-11.528 11.517-11.54h318.117c10.997 0 11.6 15.346.057 15.346z" fill="#a79ba7"/><path d="m394.104 152.181h57.522c3.87 0 6.999 3.133 6.999 6.999s-3.128 6.999-6.999 6.999h-57.522c-3.866 0-6.999-3.133-6.999-6.999s3.133-6.999 6.999-6.999zm-199.227 34.001c0-3.866 3.128-7.004 6.999-7.004h77.998c3.861 0 6.999 3.138 6.999 7.004s-3.138 6.999-6.999 6.999h-77.998c-3.87 0-6.999-3.138-6.999-6.999zm263.748 26.997c0 3.866-3.128 6.999-6.999 6.999h-106.88c-3.861 0-7.003-3.133-7.003-6.999s3.142-6.998 7.003-6.998h106.88c3.87 0 6.999 3.133 6.999 6.998zm0-26.997c0 3.861-3.128 6.999-6.999 6.999h-106.88c-3.861 0-7.003-3.138-7.003-6.999s3.142-7.004 7.003-7.004h106.88c3.87 0 6.999 3.138 6.999 7.004zm-171.753 26.997c0 3.866-3.138 6.999-6.999 6.999h-77.998c-3.87 0-6.999-3.133-6.999-6.999s3.128-6.998 6.999-6.998h77.998c3.861 0 6.999 3.133 6.999 6.998zm-86.375-50.215c1.369 1.894 3.509 2.902 5.688 2.902 1.422 0 2.849-.429 4.092-1.325l95.687-69.091 31.374 55.527c1.007 1.774 2.728 3.027 4.728 3.427 2 .395 4.068-.096 5.678-1.354l82.794-64.695-2.232 8.493c-.983 3.735 1.248 7.563 4.989 8.546 3.74.978 7.567-1.258 8.551-4.998l7.49-28.554c.549-2.082.101-4.304-1.21-6.02-1.301-1.716-3.331-2.733-5.49-2.752l-29.513-.318c-.029 0-.058-.005-.077-.005-3.832 0-6.96 3.089-6.999 6.926-.043 3.866 3.056 7.032 6.926 7.076l9.539.101-76.991 60.164-31.219-55.257c-.978-1.735-2.651-2.969-4.598-3.398-1.942-.424-3.981 0-5.591 1.166l-102.04 73.664c-3.128 2.265-3.837 6.642-1.576 9.775zm291.236 318.21c-.299 7.187-6.179 12.826-13.38 12.826h-3.311v-46.287c0-3.871-3.128-6.999-6.994-6.999s-7.004 3.128-7.004 6.999v46.287h-81.69v-46.287c0-3.871-3.128-6.999-6.998-6.999s-7.003 3.128-7.003 6.999v46.287h-3.307c-7.201 0-13.082-5.639-13.38-12.826-.8-18.832-1.431-41.37-.092-65.731.901-11.568 3.089-13.901 8.661-17.174 5.731-3.355 17.613-6.396 25.411-8.387l24.717-6.078c4.391-1.085 8.493-1.619 12.59-1.643h.492c4.092.024 8.199.559 12.59 1.643l24.659 6.059c7.861 2.01 19.743 5.051 25.469 8.406 5.572 3.273 7.76 5.606 8.662 17.174 1.34 24.36.709 46.899-.092 65.731zm-95.548-161.891c4.309-8.204 12.609-12.532 24.019-12.532s19.699 4.328 24.009 12.532c5.422 10.32 3.851 25.778-3.726 36.758-5.312 7.693-12.364 11.983-19.912 12.113h-.762c-7.529-.13-14.59-4.41-19.897-12.113-7.582-10.98-9.144-26.438-3.731-36.758zm109.608 95.167c-1.147-14.99-5.08-22.11-15.549-28.245-6.869-4.034-17.67-6.979-29.137-9.915l-16.345-4.02c2.641-2.376 5.08-5.138 7.24-8.276 10.532-15.251 12.431-36.319 4.613-51.223-6.782-12.908-19.709-20.018-36.41-20.018s-29.638 7.109-36.411 20.018c-7.818 14.903-5.929 35.972 4.603 51.223 2.169 3.138 4.608 5.899 7.24 8.276l-16.403 4.035c-11.409 2.921-22.211 5.866-29.079 9.9-10.469 6.136-14.388 13.255-15.549 28.245 0 .053 0 .101-.01.149-1.369 24.992-.733 47.974.082 67.162.617 14.711 12.638 26.24 27.368 26.24h116.307c14.73 0 26.751-11.53 27.373-26.24.81-19.189 1.451-42.17.082-67.162-.014-.048-.014-.096-.014-.149zm-200.957 66.724c-.303 7.187-6.179 12.826-13.38 12.826h-3.311v-46.287c0-3.871-3.138-6.999-6.999-6.999s-7.004 3.128-7.004 6.999v46.287h-81.69v-46.287c0-3.871-3.138-6.999-6.999-6.999s-6.999 3.128-6.999 6.999v46.287h-3.321c-7.187 0-13.067-5.639-13.381-12.826-.785-18.832-1.417-41.37-.091-65.731.901-11.568 3.104-13.901 8.671-17.174 5.731-3.355 17.612-6.396 25.401-8.387l24.732-6.078c4.386-1.085 8.488-1.619 12.575-1.643h.284c.067 0 .14 0 .217-.01 4.092.034 8.194.569 12.59 1.653l24.659 6.059c7.861 2.01 19.733 5.051 25.464 8.406 5.567 3.273 7.77 5.606 8.666 17.174 1.34 24.36.713 46.899-.087 65.731zm-95.552-161.891c4.3-8.204 12.609-12.532 24.009-12.532s19.709 4.328 24.023 12.532c5.408 10.32 3.837 25.778-3.731 36.758-5.311 7.693-12.368 11.983-19.911 12.113h-.757c-7.543-.13-14.59-4.41-19.902-12.113-7.582-10.98-9.148-26.438-3.731-36.758zm109.598 95.167c-1.147-14.976-5.066-22.11-15.545-28.245-6.864-4.034-17.67-6.979-29.142-9.915l-16.34-4.02c2.641-2.376 5.08-5.138 7.249-8.276 10.532-15.251 12.421-36.319 4.598-51.223-6.777-12.908-19.709-20.018-36.411-20.018s-29.628 7.109-36.406 20.018c-7.823 14.903-5.933 35.972 4.598 51.223 2.169 3.138 4.608 5.899 7.249 8.276l-16.398 4.035c-11.409 2.921-22.22 5.866-29.079 9.9-10.484 6.136-14.402 13.255-15.554 28.245 0 .053-.01.101-.01.149-1.378 24.992-.728 47.974.082 67.162.617 14.711 12.638 26.24 27.359 26.24h116.322c14.73 0 26.746-11.53 27.368-26.24.81-19.189 1.451-42.17.072-67.162 0-.048 0-.096-.014-.149zm170.552-154.68h-325.377c-2.473 0-4.555-2.082-4.555-4.55s2.082-4.56 4.555-4.56h325.377c2.473 0 4.56 2.087 4.56 4.56s-2.087 4.55-4.56 4.55zm-256.811-182.805c-11.236 23.546-26.828 47.733-56.949 59.45v100.247h302.149v-195.549h-302.149v41.616c6.994-5.586 13.323-13.756 19.642-25.011 6.309-11.25 18.759-12.397 27.787-7.717 8.922 4.627 15.062 15.376 9.52 26.963zm-91.35 52.461c45.954-2.752 64.994-29.739 78.721-58.496 2.4-5.037-1.947-7.78-3.34-8.498-1.017-.535-6.29-2.935-9.129 2.135-11.13 19.825-26.669 40.3-57.59 41.819-10.758.53-21.56-.718-32.979-2.039-9.65-1.113-19.641-2.27-29.672-2.27-9.187 0-26.669 3.412-50.548 9.867-8.223 2.222-13.51 5.119-15.713 8.608-1.436 2.28-2.28 5.852-2.728 11.554-.757 32.367.029 57.893 1.562 88.568.357 7.244 6.049 12.301 13.819 12.301h.27v-85.777c0-3.866 3.138-7.004 6.998-7.004s7.003 3.138 7.003 7.004v60.911h78.456v-62.897c0-8.353 6.531-15.284 14.87-15.786zm-37.288 242.024-8.271-100.705c-.371-4.483-4.039-7.862-8.541-7.862-4.43 0-8.18 3.456-8.536 7.866l-8.271 100.7h-22.418v-149.344h78.456v149.344h-22.418zm-35.731-309.1c-6.642-10.295-7.76-23.96-2.709-33.224 3.972-7.278 11.51-11.125 21.811-11.125 10.45 0 18.037 3.953 21.97 11.428 4.969 9.476 3.519 23.686-3.451 33.784-5.022 7.269-11.65 11.216-18.779 11.1-7.138-.116-14.012-4.473-18.842-11.963zm91.248-39.794c0-2.468 2.082-4.555 4.555-4.555h325.377c2.473 0 4.56 2.087 4.56 4.555s-2.087 4.555-4.56 4.555h-325.377c-2.473 0-4.555-2.087-4.555-4.555zm178.284 298.114c0 6.083-4.95 11.033-11.043 11.033s-11.028-4.95-11.028-11.033 4.95-11.038 11.028-11.038 11.043 4.95 11.043 11.038zm154.039-83.84v-195.891c9.1-1.176 16.171-8.96 16.171-18.383 0-10.233-8.319-18.557-18.562-18.557h-325.377c-10.233 0-18.552 8.324-18.552 18.557 0 9.423 7.061 17.207 16.171 18.383v49.328c-3.87 1.219-7.991 1.918-12.431 2.135-9.611.473-19.839-.708-30.68-1.961-8.98-1.041-18.239-2.106-27.85-2.318 10.31-1.075 19.868-7.095 26.679-16.957 9.92-14.364 11.689-34.203 4.319-48.244-6.401-12.199-18.61-18.923-34.357-18.923-15.511 0-27.619 6.545-34.102 18.427-7.51 13.78-6.208 32.877 3.239 47.516 6.883 10.672 16.933 17.198 27.87 18.22-10.85.549-28.058 3.991-51.29 10.267-7.577 2.048-18.297 5.798-23.888 14.658-2.771 4.396-4.232 9.814-4.868 18.128-.01.125-.01.25-.01.371-.781 32.887.019 58.737 1.566 89.788.742 14.836 12.431 25.604 27.802 25.604h.27v131.476c0 3.861 3.138 6.998 6.998 6.998h35.871c3.639 0 6.681-2.8 6.979-6.43l3.379-41.192 3.384 41.192c.299 3.629 3.34 6.43 6.979 6.43h35.871c3.856 0 6.999-3.138 6.999-6.998v-233.242c0-.974.728-1.75 1.701-1.808 7.047-.424 13.549-1.369 19.569-2.733v96.16c-9.11 1.176-16.171 8.961-16.171 18.389 0 10.228 8.319 18.552 18.552 18.552h155.688v22.861c-10.397 3.037-18.032 12.658-18.032 24.037 0 13.8 11.231 25.03 25.03 25.03s25.04-11.231 25.04-25.03c0-11.38-7.63-21.001-18.037-24.037v-22.861h155.687c10.243 0 18.562-8.324 18.562-18.552 0-9.428-7.071-17.212-16.171-18.389z"/></g></svg>